<svg xmlns="http://www.w3.org/2000/svg" width="140" height="44" viewBox="0 0 140 44" fill="none"><path d="M66.5953 34.2482V41.0234H65.7112V34.2482H66.5953ZM68.773 34.2482V34.9834H63.5381V34.2482H68.773Z" fill="white"></path><path d="M71.3939 36.7796V41.0234H70.533V35.9886H71.3706L71.3939 36.7796ZM72.9667 35.9606L72.962 36.761C72.8907 36.7455 72.8224 36.7362 72.7573 36.7331C72.6952 36.7269 72.6239 36.7238 72.5432 36.7238C72.3447 36.7238 72.1694 36.7548 72.0174 36.8168C71.8654 36.8789 71.7367 36.9657 71.6312 37.0774C71.5257 37.1891 71.442 37.3225 71.3799 37.4776C71.321 37.6296 71.2822 37.7971 71.2636 37.9801L71.0216 38.1197C71.0216 37.8157 71.0511 37.5303 71.11 37.2635C71.1721 36.9968 71.2667 36.761 71.3939 36.5562C71.5211 36.3484 71.6824 36.1871 71.8778 36.0723C72.0764 35.9544 72.3121 35.8955 72.5851 35.8955C72.6472 35.8955 72.7185 35.9032 72.7992 35.9188C72.8798 35.9312 72.9357 35.9451 72.9667 35.9606Z" fill="white"></path><path d="M77.7839 40.1625V37.5707C77.7839 37.3721 77.7436 37.1999 77.6629 37.0541C77.5854 36.9052 77.4675 36.7905 77.3093 36.7098C77.1511 36.6291 76.9556 36.5888 76.723 36.5888C76.5058 36.5888 76.315 36.626 76.1506 36.7005C75.9893 36.775 75.8621 36.8727 75.7691 36.9937C75.6791 37.1146 75.6341 37.2449 75.6341 37.3845H74.7733C74.7733 37.2046 74.8198 37.0262 74.9129 36.8494C75.0059 36.6726 75.1393 36.5128 75.313 36.3701C75.4899 36.2243 75.7008 36.1095 75.9459 36.0258C76.1941 35.9389 76.4701 35.8955 76.7742 35.8955C77.1402 35.8955 77.4628 35.9575 77.742 36.0816C78.0243 36.2057 78.2446 36.3934 78.4028 36.6447C78.5641 36.8928 78.6448 37.2046 78.6448 37.58V39.9252C78.6448 40.0927 78.6587 40.2711 78.6866 40.4603C78.7177 40.6496 78.7626 40.8124 78.8216 40.9489V41.0234H77.9235C77.8801 40.9241 77.846 40.7923 77.8211 40.6278C77.7963 40.4603 77.7839 40.3052 77.7839 40.1625ZM77.9328 37.9708L77.9421 38.5758H77.072C76.8269 38.5758 76.6082 38.5959 76.4159 38.6362C76.2235 38.6735 76.0622 38.7309 75.9319 38.8084C75.8016 38.886 75.7024 38.9837 75.6341 39.1016C75.5659 39.2164 75.5317 39.3513 75.5317 39.5064C75.5317 39.6646 75.5674 39.8089 75.6388 39.9392C75.7101 40.0694 75.8171 40.1734 75.9598 40.2509C76.1056 40.3254 76.284 40.3626 76.495 40.3626C76.7586 40.3626 76.9913 40.3068 77.1929 40.1951C77.3946 40.0834 77.5544 39.9469 77.6722 39.7856C77.7932 39.6243 77.8584 39.4676 77.8677 39.3156L78.2353 39.7298C78.2136 39.8601 78.1546 40.0043 78.0585 40.1625C77.9623 40.3207 77.8335 40.4727 77.6722 40.6185C77.514 40.7612 77.3248 40.8807 77.1045 40.9768C76.8874 41.0699 76.6423 41.1164 76.3693 41.1164C76.0281 41.1164 75.7287 41.0497 75.4712 40.9163C75.2169 40.7829 75.0183 40.6046 74.8756 40.3812C74.736 40.1548 74.6662 39.9019 74.6662 39.6227C74.6662 39.3528 74.719 39.1155 74.8244 38.9108C74.9299 38.7029 75.0819 38.5308 75.2805 38.3943C75.479 38.2547 75.7179 38.1492 75.9971 38.0779C76.2763 38.0065 76.588 37.9708 76.9324 37.9708H77.9328Z" fill="white"></path><path d="M82.6942 40.2463L84.0716 35.9886H84.951L83.1409 41.0234H82.5639L82.6942 40.2463ZM81.5449 35.9886L82.9641 40.2695L83.0618 41.0234H82.4848L80.6607 35.9886H81.5449Z" fill="white"></path><path d="M89.0424 41.1164C88.6918 41.1164 88.3738 41.0575 88.0884 40.9396C87.8061 40.8186 87.5626 40.6496 87.3579 40.4324C87.1562 40.2153 87.0011 39.9578 86.8926 39.66C86.784 39.3622 86.7297 39.0364 86.7297 38.6828V38.4873C86.7297 38.0779 86.7902 37.7134 86.9112 37.3938C87.0322 37.0712 87.1966 36.7982 87.4044 36.5749C87.6123 36.3515 87.848 36.1824 88.1117 36.0677C88.3754 35.9529 88.6484 35.8955 88.9307 35.8955C89.2905 35.8955 89.6007 35.9575 89.8613 36.0816C90.125 36.2057 90.3406 36.3794 90.5081 36.6028C90.6756 36.823 90.7997 37.0836 90.8804 37.3845C90.961 37.6823 91.0014 38.0081 91.0014 38.3617V38.7479H87.2415V38.0453H90.1405V37.9801C90.1281 37.7568 90.0816 37.5396 90.0009 37.3287C89.9234 37.1177 89.7993 36.944 89.6287 36.8075C89.458 36.671 89.2254 36.6028 88.9307 36.6028C88.7352 36.6028 88.5553 36.6447 88.3909 36.7284C88.2265 36.8091 88.0853 36.9301 87.9675 37.0914C87.8496 37.2527 87.7581 37.4497 87.6929 37.6823C87.6278 37.915 87.5952 38.1833 87.5952 38.4873V38.6828C87.5952 38.9216 87.6278 39.1466 87.6929 39.3575C87.7612 39.5653 87.8589 39.7484 87.9861 39.9066C88.1164 40.0648 88.273 40.1889 88.456 40.2788C88.6422 40.3688 88.8531 40.4138 89.0889 40.4138C89.3929 40.4138 89.6504 40.3517 89.8613 40.2277C90.0723 40.1036 90.2569 39.9376 90.4151 39.7298L90.9362 40.1439C90.8277 40.3083 90.6896 40.465 90.5221 40.6139C90.3546 40.7628 90.1483 40.8838 89.9032 40.9768C89.6612 41.0699 89.3743 41.1164 89.0424 41.1164Z" fill="white"></path><path d="M94.1807 33.876V41.0234H93.3152V33.876H94.1807Z" fill="white"></path><path d="M103.043 34.8485L100.8 41.0234H99.8831L102.466 34.2482H103.057L103.043 34.8485ZM104.923 41.0234L102.675 34.8485L102.661 34.2482H103.252L105.844 41.0234H104.923ZM104.806 38.5153V39.2505H101V38.5153H104.806Z" fill="white"></path><path d="M111.122 35.9886H111.904V40.9163C111.904 41.36 111.814 41.7384 111.634 42.0517C111.454 42.3651 111.202 42.6024 110.88 42.7637C110.56 42.9281 110.191 43.0103 109.772 43.0103C109.599 43.0103 109.394 42.9824 109.158 42.9265C108.925 42.8738 108.696 42.7823 108.469 42.652C108.246 42.5248 108.058 42.3526 107.906 42.1355L108.358 41.6236C108.569 41.878 108.789 42.0548 109.019 42.1541C109.251 42.2534 109.481 42.303 109.707 42.303C109.98 42.303 110.216 42.2518 110.415 42.1495C110.613 42.0471 110.767 41.8951 110.875 41.6934C110.987 41.4949 111.043 41.2498 111.043 40.9582V37.096L111.122 35.9886ZM107.655 38.5618V38.4641C107.655 38.0794 107.7 37.7304 107.79 37.4171C107.883 37.1007 108.015 36.8292 108.186 36.6028C108.359 36.3763 108.569 36.2026 108.814 36.0816C109.059 35.9575 109.335 35.8955 109.642 35.8955C109.959 35.8955 110.235 35.9513 110.47 36.063C110.709 36.1716 110.911 36.3313 111.075 36.5423C111.243 36.7501 111.375 37.0014 111.471 37.2961C111.567 37.5908 111.634 37.9243 111.671 38.2966V38.7247C111.637 39.0938 111.57 39.4258 111.471 39.7205C111.375 40.0152 111.243 40.2664 111.075 40.4743C110.911 40.6821 110.709 40.8419 110.47 40.9536C110.232 41.0621 109.952 41.1164 109.633 41.1164C109.332 41.1164 109.059 41.0528 108.814 40.9256C108.572 40.7985 108.364 40.6201 108.19 40.3905C108.017 40.161 107.883 39.8911 107.79 39.5809C107.7 39.2675 107.655 38.9279 107.655 38.5618ZM108.516 38.4641V38.5618C108.516 38.8131 108.541 39.0488 108.59 39.2691C108.643 39.4893 108.722 39.6832 108.828 39.8507C108.936 40.0183 109.074 40.1501 109.242 40.2463C109.409 40.3393 109.61 40.3859 109.842 40.3859C110.128 40.3859 110.363 40.3254 110.549 40.2044C110.736 40.0834 110.883 39.9236 110.992 39.7251C111.103 39.5266 111.19 39.311 111.252 39.0783V37.9569C111.218 37.7863 111.165 37.6218 111.094 37.4636C111.026 37.3023 110.936 37.1596 110.824 37.0355C110.715 36.9083 110.581 36.8075 110.419 36.7331C110.258 36.6586 110.069 36.6214 109.851 36.6214C109.616 36.6214 109.413 36.671 109.242 36.7703C109.074 36.8665 108.936 36.9999 108.828 37.1705C108.722 37.338 108.643 37.5334 108.59 37.7568C108.541 37.977 108.516 38.2128 108.516 38.4641Z" fill="white"></path><path d="M116.539 41.1164C116.189 41.1164 115.871 41.0575 115.585 40.9396C115.303 40.8186 115.06 40.6496 114.855 40.4324C114.653 40.2153 114.498 39.9578 114.39 39.66C114.281 39.3622 114.227 39.0364 114.227 38.6828V38.4873C114.227 38.0779 114.287 37.7134 114.408 37.3938C114.529 37.0712 114.694 36.7982 114.901 36.5749C115.109 36.3515 115.345 36.1824 115.609 36.0677C115.872 35.9529 116.145 35.8955 116.428 35.8955C116.788 35.8955 117.098 35.9575 117.358 36.0816C117.622 36.2057 117.838 36.3794 118.005 36.6028C118.173 36.823 118.297 37.0836 118.377 37.3845C118.458 37.6823 118.498 38.0081 118.498 38.3617V38.7479H114.739V38.0453H117.637V37.9801C117.625 37.7568 117.579 37.5396 117.498 37.3287C117.42 37.1177 117.296 36.944 117.126 36.8075C116.955 36.671 116.722 36.6028 116.428 36.6028C116.232 36.6028 116.052 36.6447 115.888 36.7284C115.723 36.8091 115.582 36.9301 115.464 37.0914C115.347 37.2527 115.255 37.4497 115.19 37.6823C115.125 37.915 115.092 38.1833 115.092 38.4873V38.6828C115.092 38.9216 115.125 39.1466 115.19 39.3575C115.258 39.5653 115.356 39.7484 115.483 39.9066C115.613 40.0648 115.77 40.1889 115.953 40.2788C116.139 40.3688 116.35 40.4138 116.586 40.4138C116.89 40.4138 117.147 40.3517 117.358 40.2277C117.569 40.1036 117.754 39.9376 117.912 39.7298L118.433 40.1439C118.325 40.3083 118.187 40.465 118.019 40.6139C117.852 40.7628 117.645 40.8838 117.4 40.9768C117.158 41.0699 116.871 41.1164 116.539 41.1164Z" fill="white"></path><path d="M121.603 37.0635V41.0234H120.742V35.9886H121.557L121.603 37.0635ZM121.398 38.3152L121.04 38.3012C121.043 37.9569 121.094 37.6389 121.194 37.3473C121.293 37.0526 121.433 36.7967 121.612 36.5795C121.792 36.3624 122.006 36.1948 122.255 36.077C122.506 35.956 122.784 35.8955 123.088 35.8955C123.336 35.8955 123.559 35.9296 123.758 35.9979C123.956 36.063 124.125 36.1685 124.265 36.3143C124.408 36.4601 124.516 36.6493 124.591 36.882C124.665 37.1115 124.702 37.3923 124.702 37.7242V41.0234H123.837V37.7149C123.837 37.4512 123.798 37.2403 123.72 37.0821C123.643 36.9208 123.53 36.8044 123.381 36.7331C123.232 36.6586 123.049 36.6214 122.832 36.6214C122.618 36.6214 122.422 36.6664 122.245 36.7563C122.072 36.8463 121.921 36.9704 121.794 37.1286C121.67 37.2868 121.572 37.4683 121.501 37.673C121.433 37.8747 121.398 38.0887 121.398 38.3152Z" fill="white"></path><path d="M129.264 40.4091C129.468 40.4091 129.658 40.3673 129.831 40.2835C130.005 40.1997 130.148 40.085 130.259 39.9392C130.371 39.7903 130.435 39.6212 130.45 39.432H131.269C131.254 39.7298 131.153 40.0074 130.967 40.2649C130.784 40.5193 130.543 40.7256 130.245 40.8838C129.948 41.0389 129.62 41.1164 129.264 41.1164C128.885 41.1164 128.555 41.0497 128.272 40.9163C127.993 40.7829 127.761 40.5999 127.574 40.3673C127.391 40.1346 127.253 39.8678 127.16 39.5669C127.07 39.2629 127.025 38.9418 127.025 38.6037V38.4082C127.025 38.0701 127.07 37.7506 127.16 37.4497C127.253 37.1457 127.391 36.8773 127.574 36.6447C127.761 36.412 127.993 36.229 128.272 36.0956C128.555 35.9622 128.885 35.8955 129.264 35.8955C129.658 35.8955 130.002 35.9761 130.297 36.1375C130.591 36.2957 130.822 36.5128 130.99 36.7889C131.161 37.0619 131.254 37.3721 131.269 37.7196H130.45C130.435 37.5117 130.376 37.324 130.273 37.1565C130.174 36.989 130.038 36.8556 129.864 36.7563C129.693 36.654 129.493 36.6028 129.264 36.6028C129 36.6028 128.778 36.6555 128.598 36.761C128.421 36.8634 128.28 37.003 128.175 37.1798C128.072 37.3535 127.998 37.5474 127.951 37.7614C127.908 37.9724 127.886 38.188 127.886 38.4082V38.6037C127.886 38.8239 127.908 39.0411 127.951 39.2551C127.995 39.4692 128.068 39.6631 128.17 39.8368C128.276 40.0105 128.417 40.1501 128.593 40.2556C128.773 40.358 128.997 40.4091 129.264 40.4091Z" fill="white"></path><path d="M134.89 40.5022L136.291 35.9886H137.212L135.193 41.8005C135.146 41.9245 135.084 42.0579 135.007 42.2006C134.932 42.3464 134.836 42.4845 134.718 42.6148C134.6 42.7451 134.458 42.8505 134.29 42.9312C134.126 43.015 133.929 43.0568 133.699 43.0568C133.631 43.0568 133.544 43.0475 133.439 43.0289C133.333 43.0103 133.259 42.9948 133.215 42.9824L133.211 42.2844C133.235 42.2875 133.274 42.2906 133.327 42.2937C133.383 42.2999 133.422 42.303 133.443 42.303C133.639 42.303 133.805 42.2766 133.941 42.2239C134.078 42.1743 134.192 42.089 134.286 41.968C134.382 41.8501 134.464 41.6872 134.532 41.4794L134.89 40.5022ZM133.862 35.9886L135.17 39.8973L135.393 40.8047L134.774 41.1211L132.922 35.9886H133.862Z" fill="white"></path><path d="M70.9368 17.6932C71.1887 17.6932 71.6084 17.647 72.1961 17.5547V20.577C71.8939 20.6609 71.5455 20.7239 71.1509 20.7659C70.7563 20.8163 70.3659 20.8414 69.9797 20.8414C68.4434 20.8414 67.2764 20.4385 66.4789 19.6325C65.6897 18.8266 65.2951 17.5463 65.2951 15.7916V9.72181H63.3054V6.82542H65.2951L65.9625 1.96451H68.9723V6.82542H72.1205V9.72181H68.9723V15.3509C68.9723 15.947 69.0352 16.4129 69.1612 16.7487C69.2871 17.0845 69.4928 17.328 69.7782 17.4791C70.0637 17.6218 70.4499 17.6932 70.9368 17.6932Z" fill="white"></path><path d="M73.7383 6.82542H76.7607L77.0503 8.73956H77.214C77.8185 7.33753 78.9015 6.63652 80.463 6.63652C80.7988 6.63652 81.1053 6.6659 81.3823 6.72467V10.15C81.0465 10.0828 80.6603 10.0492 80.2237 10.0492C79.6445 10.0492 79.0988 10.171 78.5867 10.4144C78.0745 10.6579 77.6842 10.9853 77.4155 11.3967V20.6022H73.7383V6.82542Z" fill="white"></path><path d="M82.9126 20.6022V6.82542H86.6023V20.6022H82.9126ZM84.7511 4.81053C83.9788 4.81053 83.3995 4.63003 83.0133 4.26903C82.6355 3.90803 82.4466 3.39592 82.4466 2.73269C82.4466 2.06945 82.6355 1.55734 83.0133 1.19634C83.3995 0.826941 83.9788 0.642244 84.7511 0.642244C85.5235 0.642244 86.0986 0.826941 86.4764 1.19634C86.8626 1.55734 87.0557 2.06945 87.0557 2.73269C87.0557 3.39592 86.8626 3.90803 86.4764 4.26903C86.0986 4.63003 85.5235 4.81053 84.7511 4.81053Z" fill="white"></path><path d="M89.0615 6.82542H92.172L92.4238 8.32399H92.6001C92.8772 7.79508 93.2676 7.37951 93.7713 7.07728C94.275 6.76665 94.8669 6.61133 95.5469 6.61133C96.4368 6.61133 97.2428 6.8506 97.9648 7.32914C98.6868 7.79928 99.2618 8.55066 99.69 9.58329C100.127 10.6075 100.345 11.9046 100.345 13.4745C100.345 15.926 99.7823 17.7688 98.6574 19.0029C97.5324 20.2286 95.7946 20.8414 93.4439 20.8414C93.2004 20.8414 92.9653 20.8289 92.7387 20.8037V26.1431H89.0615V6.82542ZM93.7335 18.008C94.3799 18.008 94.9088 17.8779 95.3202 17.6176C95.7316 17.3574 96.0422 16.9208 96.2521 16.308C96.4704 15.6951 96.5795 14.864 96.5795 13.8145C96.5795 12.7315 96.4872 11.892 96.3025 11.2959C96.1262 10.6915 95.8743 10.2759 95.5469 10.0492C95.2279 9.82255 94.8291 9.70922 94.3506 9.70922C94.0315 9.70922 93.7251 9.77638 93.4313 9.91071C93.1458 10.045 92.915 10.2339 92.7387 10.4774V17.9199C93.0745 17.9786 93.4061 18.008 93.7335 18.008Z" fill="white"></path><path d="M107.924 1.63709C107.051 1.63709 106.404 1.84278 105.984 2.25415C105.565 2.65713 105.355 3.30777 105.355 4.20607V6.93875H108.893V8.52547H105.355V20.6022H103.453V8.52547H101.136V6.93875H103.453V4.26903C103.453 2.87541 103.814 1.81759 104.536 1.09559C105.258 0.365198 106.329 0 107.747 0C108.343 0 108.877 0.0461741 109.347 0.138522V1.77561C108.835 1.68327 108.36 1.63709 107.924 1.63709Z" fill="white"></path><path d="M118.938 14.4316H111.471C111.496 15.6321 111.651 16.5808 111.937 17.2776C112.222 17.9744 112.646 18.474 113.208 18.7762C113.771 19.07 114.501 19.2169 115.4 19.2169C116.206 19.2169 117.175 19.049 118.309 18.7132V20.3503C117.746 20.5266 117.217 20.6526 116.722 20.7281C116.227 20.8037 115.719 20.8414 115.198 20.8414C113.897 20.8414 112.831 20.6106 111.999 20.1488C111.168 19.6787 110.543 18.9231 110.123 17.8821C109.712 16.8411 109.506 15.4642 109.506 13.7516C109.506 11.3421 109.934 9.57069 110.791 8.43732C111.647 7.29556 112.839 6.72467 114.367 6.72467C115.853 6.72467 116.986 7.28716 117.767 8.41214C118.548 9.53711 118.938 11.3295 118.938 13.7894V14.4316ZM114.354 8.16028C113.456 8.16028 112.755 8.52547 112.251 9.25587C111.756 9.97787 111.496 11.2456 111.471 13.059H117.074C117.058 11.8165 116.936 10.8342 116.709 10.1122C116.491 9.39019 116.185 8.88647 115.79 8.60103C115.404 8.3072 114.925 8.16028 114.354 8.16028Z" fill="white"></path><path d="M121.352 6.93875H122.951L123.115 8.80252H123.241C123.627 8.13929 124.118 7.63977 124.714 7.30395C125.319 6.96814 125.978 6.80023 126.691 6.80023C126.884 6.80023 127.141 6.82122 127.46 6.8632V8.68918C127.258 8.6556 126.964 8.63881 126.578 8.63881C125.915 8.63881 125.277 8.81511 124.664 9.16772C124.059 9.52032 123.594 10.0073 123.266 10.6285V20.6022H121.352V6.93875Z" fill="white"></path><path d="M137.399 6.93875H139.364L133.206 26.1431H131.292L133.08 20.6022H132.45L128.068 6.93875H130.095L133.709 18.8769L137.399 6.93875Z" fill="white"></path><path d="M54.4352 5.54248L48.6271 13.0294L50.845 19.4477L54.4352 5.54248Z" fill="white"></path><path d="M54.4564 5.53394L46.403 10.5684L40.1809 7.76834L54.4564 5.53394Z" fill="white"></path><path d="M11.4723 38.0177C14.9139 40.4048 19.0117 41.6823 23.2093 41.6767C34.5639 41.6767 43.7678 32.5345 43.7678 21.255C43.7668 20.0027 43.6501 18.7531 43.419 17.522C37.7191 25.1383 23.8891 41.3333 11.4723 38.0177Z" fill="white"></path><path d="M42.5911 14.4402C41.1719 10.461 38.5463 7.01631 35.0756 4.57989C31.6048 2.14347 27.4594 0.835006 23.2093 0.834473C11.8547 0.834473 2.64979 9.97662 2.64979 21.2551C2.6478 22.8072 2.82405 24.3544 3.17513 25.8668C1.62119 26.1027 0 24.531 0 24.531C0.977494 26.3584 2.41999 27.8995 4.18377 29.0008L4.20584 29.053C4.8885 29.46 5.60319 29.8114 6.3429 30.104C7.30645 30.4958 8.31228 30.776 9.34047 30.9388C16.4367 32.1609 27.0569 28.9873 42.5911 14.4402Z" fill="white"></path></svg>